<?xml version="1.0" ?><svg enable-background="new 0 0 512 512" version="1.1" viewBox="0 0 512 512" xml:space="preserve" xmlns="http://www.w3.org/2000/svg" xmlns:xlink="http://www.w3.org/1999/xlink"><g id="Layer_1"><g id="Layer_7"><g id="Layer_9"/></g></g><g id="Layer_2_1_"><path d="M397.5,142h-283c-16.57,0-30,13.43-30,30v168c0,16.57,13.43,30,30,30h283c16.57,0,30-13.43,30-30V172   C427.5,155.43,414.07,142,397.5,142z M405,331.5c0,11.05-8.95,20-20,20H127c-11.05,0-20-8.95-20-20v-151c0-11.05,8.95-20,20-20h258   c11.05,0,20,8.95,20,20V331.5z" fill="#252525"/></g><g id="Layer_3_1_"><polyline fill="none" points="354.104,196.448 256,294.552    157.896,196.448  " stroke="#252525" stroke-miterlimit="10" stroke-width="20"/></g></svg>